
<svg width="0" height="0" class="hidden">
  <symbol xmlns="http://www.w3.org/2000/svg" enable-background="new 0 0 24 24" viewBox="0 0 24 24" id="linkedin">
    <path d="M7.5006104,9C7.5003662,9,7.5001831,9,7.5,9h-4C3.223999,8.9998169,3.0001831,9.2234497,3,9.4993896C3,9.4996338,3,9.4998169,3,9.5v12c-0.0001831,0.276001,0.2234497,0.4998169,0.4993896,0.5C3.4996338,22,3.4998169,22,3.5,22h4c0.276001,0.0001831,0.4998169-0.2234497,0.5-0.4994507C8,21.5003662,8,21.5001831,8,21.5v-12C8.0001831,9.223999,7.7765503,9.0001831,7.5006104,9z M7,21H4V10h3V21z M18,9c-1.0848389,0.000061-2.1393433,0.3580933-3,1.0185547V9.5c0.0001831-0.276001-0.2234497-0.4998169-0.4993896-0.5C14.5003662,9,14.5001831,9,14.5,9h-4c-0.276001-0.0001831-0.4998169,0.2234497-0.5,0.4993896C10,9.4996338,10,9.4998169,10,9.5v12c-0.0001831,0.276001,0.2234497,0.4998169,0.4994507,0.5c0.0001831,0,0.0003662,0,0.0005493,0h4c0.276001,0.0001831,0.4998169-0.2234497,0.5-0.4994507c0-0.0001831,0-0.0003662,0-0.0005493V16c0-0.8284302,0.6715698-1.5,1.5-1.5S18,15.1715698,18,16v5.5c-0.0001831,0.276001,0.2234497,0.4998169,0.4994507,0.5c0.0001831,0,0.0003662,0,0.0005493,0h4c0.276001,0.0001831,0.4998169-0.2234497,0.5-0.4994507c0-0.0001831,0-0.0003662,0-0.0005493V14C22.9967651,11.2399292,20.7600708,9.0032349,18,9z M22,21h-3v-5c0-1.3807373-1.1192627-2.5-2.5-2.5S14,14.6192627,14,16v5h-3V10h3v1.203125c0,0.2124634,0.1343994,0.4016724,0.335022,0.4716797c0.2001343,0.0721436,0.4240112,0.0079956,0.5556641-0.1591797c1.3625488-1.7268066,3.8669434-2.0220337,5.59375-0.6594238C21.4462891,11.6152344,22.0053101,12.7747192,22,14V21z M5.867981,2.0018311C5.7503662,1.9935913,5.6323242,1.992981,5.5146484,2C4.0053711,1.8969116,2.6983032,3.0368652,2.5952148,4.5461426c-0.0041504,0.06073-0.0062256,0.121521-0.0063477,0.182373c-0.0130005,1.49646,1.1895752,2.7200928,2.6860352,2.7330933c0.0610962,0.0005493,0.1221313-0.0010376,0.1831055-0.0046387h0.0283203c1.5064087,0.1054077,2.8129883-1.0303345,2.918396-2.5367432S7.3743896,2.1072388,5.867981,2.0018311z M5.8334351,6.4598389C5.7179565,6.470459,5.6016235,6.4695435,5.4863281,6.4569702H5.4580078C4.5018921,6.5304565,3.6672974,5.8150024,3.593811,4.8588867C3.5203247,3.902832,4.2357788,3.0681763,5.1918945,2.9946899C5.2994385,2.9864502,5.4074707,2.9882202,5.5146484,3C6.4700317,2.9119873,7.315918,3.6151123,7.4039917,4.5704956C7.4920044,5.5259399,6.7888794,6.3718262,5.8334351,6.4598389z"></path>
  </symbol>
  <symbol xmlns="http://www.w3.org/2000/svg" viewBox="0 0 24 24" id="twitter">
    <path d="M8.145 21.449c-2.15 0-4.638-.552-7.39-2.097-.208-.117-.304-.364-.23-.59s.297-.375.533-.342c1.814.208 3.795-.217 5.275-1.086-1.695-.398-3.065-1.499-3.788-3.098a.499.499 0 0 1 .08-.536c.13-.148.334-.205.522-.148.218.067.435.113.644.138-1.287-.768-2.665-2.238-2.665-4.441a.5.5 0 0 1 .814-.389c.16.13.331.239.508.325a5.362 5.362 0 0 1-.869-1.817c-.332-1.282-.139-2.582.557-3.756a.501.501 0 0 1 .821-.057c1.472 1.839 4.088 4.061 8.294 4.466-.078-1.331.322-3.512 2.16-4.585 2.261-1.32 4.436-1.15 6.305.487.828-.184 2.135-.752 2.406-.941a.5.5 0 0 1 .77.538c-.125.471-.408.995-.76 1.463.279-.083.514-.167.639-.231a.5.5 0 0 1 .652.711c-.588.93-1.539 1.796-2.174 2.266.343 4.225-2.126 8.946-6.089 11.577-1.47.975-3.886 2.143-7.015 2.143zM3.15 19.406c5.351 2.195 9.403.428 11.456-.935 3.756-2.494 6.067-6.988 5.62-10.929a.498.498 0 0 1 .222-.474c.269-.177.68-.502 1.094-.905-.407.088-.802.147-1.089.148-.276-.033-.447-.169-.492-.405a.498.498 0 0 1 .306-.559c.283-.113.665-.454.995-.872-.566.219-1.178.413-1.628.478a.497.497 0 0 1-.413-.131c-1.578-1.482-3.362-1.658-5.306-.524-1.745 1.02-1.784 3.397-1.6 4.148a.499.499 0 0 1-.513.619C7.331 8.829 4.427 6.719 2.68 4.773a3.808 3.808 0 0 0-.132 2.344c.294 1.133 1.034 2.002 1.596 2.33a.5.5 0 0 1-.153.922 3.106 3.106 0 0 1-1.752-.185c.521 2.085 2.689 3.067 3.299 3.135a.501.501 0 0 1 .268.879c-.437.369-1.091.547-1.828.51.836 1.114 2.132 1.754 3.681 1.788a.5.5 0 0 1 .323.872c-1.228 1.1-2.99 1.823-4.832 2.038z"></path>
  </symbol>
  <symbol xmlns="http://www.w3.org/2000/svg" viewBox="0 0 16 16" id="instagram">
    <g fill="none" stroke-miterlimit="10">
      <path d="M11.5 15.5h-7a4 4 0 0 1-4-4v-7a4 4 0 0 1 4-4h7a4 4 0 0 1 4 4v7a4 4 0 0 1-4 4z"></path>
      <circle cx="8" cy="8" r="3.5"></circle>
      <circle cx="12.5" cy="3.5" r=".5"></circle>
    </g>
  </symbol>
  <symbol fill="none" xmlns="http://www.w3.org/2000/svg" viewBox="0 0 24 24" id="github">
    <path d="M9.65333 20.8652C9.65315 20.717 9.58735 20.5765 9.47364 20.4814C9.35902 20.3878 9.20942 20.3482 9.06349 20.373C7.47267 20.668 5.45509 20.6719 4.86915 19.0264C4.50874 18.1468 3.93116 17.373 3.19044 16.7773C3.03712 16.6987 2.89893 16.5936 2.78224 16.4669C2.74281 16.2259 2.5351 16.0488 2.29102 16.0478H2.28901C2.01368 16.0478 1.79011 16.2705 1.78901 16.5459C1.78608 17.1162 2.49995 17.543 2.71089 17.6553C3.24091 18.1313 3.65821 18.7195 3.93263 19.377C4.28126 20.3565 5.34376 21.8721 8.65528 21.4493C8.65821 21.8135 8.66309 22.002 8.667 22.1456L8.67188 22.4405C8.67188 22.7166 8.89576 22.9405 9.17188 22.9405C9.44801 22.9405 9.67188 22.7166 9.67188 22.4405L9.667 22.1182C9.66114 21.917 9.65333 21.627 9.65333 20.8652ZM20.9209 5.22363C20.8906 5.18554 20.8584 5.1455 20.8252 5.10547C20.8923 4.8941 20.9451 4.67846 20.9834 4.46002C21.1382 3.38684 21.0009 2.29174 20.5859 1.28997C20.5313 1.15234 20.4182 1.04608 20.2774 0.999997C20.1358 0.953122 18.8438 0.605466 16.1475 2.38183C13.8885 1.80761 11.5217 1.80761 9.2627 2.38183C6.56739 0.625973 5.28321 0.955075 5.14063 0.997067C4.99714 1.04236 4.88142 1.14947 4.8252 1.28906C4.40266 2.30597 4.26624 3.419 4.43067 4.50781C4.46894 4.70746 4.51753 4.90496 4.57618 5.09961C4.54102 5.14264 4.50782 5.18554 4.47657 5.22754C3.63001 6.30157 3.17957 7.63464 3.20118 9.00201C3.19874 9.31213 3.21308 9.62213 3.24415 9.93072C3.58399 14.5948 6.59278 15.8926 9.19148 16.336C9.02223 16.6394 8.8957 16.9647 8.81544 17.3028C8.74964 17.5708 8.91358 17.8415 9.18165 17.9073C9.44972 17.9731 9.72035 17.8091 9.78614 17.5411C9.87867 17.0814 10.1109 16.6616 10.4511 16.3389C10.6592 16.1569 10.6804 15.8407 10.4984 15.6326C10.4163 15.5389 10.3024 15.4791 10.1787 15.4649C7.42188 15.1524 4.56056 14.2413 4.24018 9.8399C4.21192 9.56152 4.19892 9.2818 4.20118 9.00201C4.18232 7.85425 4.56037 6.73517 5.27149 5.83398C5.34669 5.73242 5.43067 5.63965 5.51368 5.54785C5.64045 5.40796 5.67787 5.20861 5.61036 5.03222C5.52503 4.8067 5.45997 4.57403 5.41602 4.33691C5.29627 3.53302 5.37611 2.71203 5.64845 1.94629C6.83601 2.11163 7.95753 2.59216 8.89643 3.33789C9.01765 3.41967 9.16877 3.44397 9.30952 3.40429C11.5339 2.80078 13.879 2.80078 16.1035 3.40429C16.245 3.44384 16.3967 3.41919 16.5184 3.33691C17.4508 2.58349 18.5718 2.10009 19.7597 1.93945C20.0289 2.69366 20.1103 3.50213 19.997 4.29492C19.9528 4.54687 19.8838 4.79388 19.791 5.03222C19.7235 5.20861 19.7608 5.40789 19.8876 5.54785C19.9755 5.64453 20.0634 5.75293 20.1405 5.84961C20.8533 6.74383 21.2319 7.85864 21.2109 9.00201C21.2133 9.28802 21.1992 9.57397 21.169 9.85846C20.8516 14.2393 17.9795 15.1504 15.2119 15.4649C14.9373 15.4964 14.7402 15.7446 14.7718 16.0193C14.786 16.1429 14.8458 16.2569 14.9395 16.3389C15.2842 16.6638 15.515 17.0912 15.5977 17.5576C15.6829 17.887 15.7227 18.2264 15.7158 18.5664V21.0254C15.7051 21.7012 15.7051 22.2081 15.7051 22.4404C15.7055 22.7165 15.9297 22.9401 16.2058 22.9398C16.4814 22.9393 16.7047 22.716 16.7051 22.4404C16.7051 22.21 16.7051 21.709 16.7158 21.0332V18.5664C16.7237 18.1429 16.6734 17.7204 16.5665 17.3105C16.4912 16.9698 16.3676 16.6416 16.1993 16.3359C18.8077 15.8936 21.8281 14.5967 22.1651 9.95117C22.1982 9.63586 22.2135 9.31897 22.211 9.00195C22.2338 7.63073 21.7775 6.29455 20.9209 5.22363Z" fill="#D8DEE9"></path>
  </symbol>
</svg>